<svg width="36" height="34" viewBox="0 0 36 34" fill="none" xmlns="http://www.w3.org/2000/svg">
<path d="M34.7448 1.275C34.4992 1.04324 34.2075 0.859374 33.8863 0.733921C33.5652 0.608467 33.2209 0.543892 32.8732 0.543892C32.5255 0.543892 32.1812 0.608467 31.8601 0.733921C31.5389 0.859374 31.2472 1.04324 31.0016 1.275L18.02 13.475L5.03842 1.25C4.79264 1.01855 4.50085 0.834947 4.17973 0.709684C3.8586 0.584422 3.51442 0.519951 3.16684 0.519951C2.81925 0.519951 2.47507 0.584422 2.15394 0.709684C1.83282 0.834947 1.54103 1.01855 1.29525 1.25C1.04947 1.48146 0.854511 1.75623 0.721496 2.05864C0.588481 2.36105 0.52002 2.68518 0.52002 3.0125C0.52002 3.33983 0.588481 3.66395 0.721496 3.96636C0.854511 4.26877 1.04947 4.54355 1.29525 4.775L14.2769 17L1.29525 29.225C1.04947 29.4565 0.854511 29.7312 0.721496 30.0336C0.588481 30.3361 0.52002 30.6602 0.52002 30.9875C0.52002 31.3148 0.588481 31.6389 0.721496 31.9414C0.854511 32.2438 1.04947 32.5185 1.29525 32.75C1.54103 32.9815 1.83282 33.1651 2.15394 33.2903C2.47507 33.4156 2.81925 33.48 3.16684 33.48C3.51442 33.48 3.8586 33.4156 4.17973 33.2903C4.50085 33.1651 4.79264 32.9815 5.03842 32.75L18.02 20.525L31.0016 32.75C31.2474 32.9815 31.5392 33.1651 31.8603 33.2903C32.1814 33.4156 32.5256 33.48 32.8732 33.48C33.2208 33.48 33.565 33.4156 33.8861 33.2903C34.2072 33.1651 34.499 32.9815 34.7448 32.75C34.9906 32.5185 35.1855 32.2438 35.3185 31.9414C35.4516 31.6389 35.52 31.3148 35.52 30.9875C35.52 30.6602 35.4516 30.3361 35.3185 30.0336C35.1855 29.7312 34.9906 29.4565 34.7448 29.225L21.7632 17L34.7448 4.775C35.7536 3.825 35.7536 2.225 34.7448 1.275Z" fill="black"/>
</svg>
