<svg width="50" height="50" viewBox="0 0 50 50" fill="none" xmlns="http://www.w3.org/2000/svg">
<path d="M25 0C11.2151 0 0 11.2151 0 25C0 38.7849 11.2151 50 25 50C38.7849 50 50 38.7849 50 25C50 11.2151 38.7849 0 25 0ZM39.4231 22.9291H28.726L33.1587 18.4964L32.4856 17.7139C31.2816 16.4641 29.7867 15.532 28.1345 15.0011C26.4823 14.4702 24.7243 14.357 23.0177 14.6716C21.311 14.9862 19.7089 15.7188 18.3546 16.8039C17.0003 17.8891 15.936 19.2929 15.2568 20.8899C14.5777 22.4869 14.3049 24.2273 14.4627 25.9555C14.6206 27.6837 15.2043 29.3458 16.1616 30.7933C17.1189 32.2408 18.4199 33.4285 19.9484 34.2503C21.4769 35.0721 23.1853 35.5023 24.9207 35.5024C27.0925 35.5004 29.2105 34.8264 30.9842 33.5729C32.7578 32.3194 34.1001 30.5478 34.8269 28.5012L35.4724 26.6827L39.0986 27.9651L38.4615 29.7837C37.585 32.2642 36.0435 34.4561 34.0054 36.1198C31.9673 37.7834 29.5111 38.8548 26.9052 39.2168C24.2994 39.5789 21.6441 39.2176 19.2297 38.1725C16.8153 37.1274 14.7346 35.4387 13.2151 33.291C11.6956 31.1433 10.7958 28.6192 10.6139 25.9946C10.432 23.37 10.975 20.7459 12.1837 18.4091C13.3925 16.0724 15.2203 14.1128 17.4674 12.7446C19.7146 11.3765 22.2946 10.6524 24.9255 10.6514C26.8671 10.644 28.7898 11.0342 30.5749 11.798C32.36 12.5618 33.9699 13.683 35.3053 15.0925L35.3726 15.1671L35.8906 15.768L39.4231 12.2368V22.9291Z" fill="black"/>
</svg>
