<svg width="35" height="35" viewBox="0 0 35 35" fill="none" xmlns="http://www.w3.org/2000/svg">
<path d="M14.5833 20.4167L30.6249 4.375" stroke="white" stroke-width="2" stroke-linecap="round" stroke-linejoin="round"/>
<path d="M30.6244 4.375L21.1453 30.625C21.0813 30.7646 20.9786 30.8829 20.8493 30.9659C20.72 31.0488 20.5697 31.0929 20.4161 31.0929C20.2625 31.0929 20.1122 31.0488 19.9829 30.9659C19.8536 30.8829 19.7509 30.7646 19.6869 30.625L14.5828 20.4167L4.37443 15.3125C4.23481 15.2485 4.11649 15.1458 4.03354 15.0165C3.95059 14.8873 3.90649 14.7369 3.90649 14.5833C3.90649 14.4297 3.95059 14.2794 4.03354 14.1501C4.11649 14.0209 4.23481 13.9182 4.37443 13.8542L30.6244 4.375Z" stroke="white" stroke-width="2" stroke-linecap="round" stroke-linejoin="round"/>
</svg>
