<svg width="70" height="70" viewBox="0 0 70 70" fill="none" xmlns="http://www.w3.org/2000/svg">
<path d="M61.2227 17.8828L57.8867 36.1758C57.6115 37.6869 56.815 39.0537 55.6358 40.038C54.4567 41.0223 52.9696 41.5618 51.4336 41.5625H19.7148L20.918 48.125H50.3125C51.6104 48.125 52.8792 48.5099 53.9584 49.231C55.0376 49.9521 55.8788 50.977 56.3755 52.1761C56.8722 53.3753 57.0021 54.6948 56.7489 55.9678C56.4957 57.2408 55.8707 58.4101 54.9529 59.3279C54.0351 60.2457 52.8658 60.8707 51.5928 61.1239C50.3198 61.3771 49.0003 61.2472 47.8011 60.7505C46.602 60.2538 45.5771 59.4126 44.856 58.3334C44.1349 57.2542 43.75 55.9854 43.75 54.6875C43.7502 53.9417 43.8798 53.2016 44.1328 52.5H28.0547C28.3077 53.2016 28.4373 53.9417 28.4375 54.6875C28.4395 55.7463 28.1852 56.7899 27.6965 57.7291C27.2077 58.6684 26.4989 59.4754 25.6306 60.0814C24.7623 60.6873 23.7603 61.0741 22.7101 61.2089C21.6599 61.3436 20.5927 61.2223 19.5996 60.8551C18.6064 60.488 17.7169 59.886 17.0068 59.1006C16.2968 58.3151 15.7873 57.3695 15.522 56.3445C15.2566 55.3195 15.2432 54.2455 15.4829 53.2142C15.7226 52.1828 16.2082 51.2248 16.8984 50.4219L9.32422 8.75H4.375C3.79484 8.75 3.23844 8.51953 2.8282 8.1093C2.41797 7.69906 2.1875 7.14266 2.1875 6.5625C2.1875 5.98234 2.41797 5.42594 2.8282 5.0157C3.23844 4.60547 3.79484 4.375 4.375 4.375H9.32422C10.3453 4.37723 11.3335 4.73658 12.1176 5.39078C12.9016 6.04498 13.4321 6.95282 13.6172 7.95703L14.957 15.3125H59.0625C59.3819 15.3132 59.6971 15.3846 59.9855 15.5217C60.2739 15.6589 60.5283 15.8582 60.7305 16.1055C60.942 16.345 61.0962 16.6294 61.1815 16.9374C61.2668 17.2453 61.2809 17.5686 61.2227 17.8828Z" fill="white"/>
</svg>
